<mxfile host="app.diagrams.net" agent="Mozilla/5.0 (Windows NT 10.0; Win64; x64) AppleWebKit/537.36 (KHTML, like Gecko) Chrome/132.0.0.0 Safari/537.36" version="24.8.8">
  <diagram name="Page-1" id="L__EfY5ED4CkXt1lasy4">
    <mxGraphModel dx="954" dy="605" grid="1" gridSize="10" guides="1" tooltips="1" connect="1" arrows="1" fold="1" page="1" pageScale="1" pageWidth="850" pageHeight="1100" math="0" shadow="0">
      <root>
        <mxCell id="0" />
        <mxCell id="1" parent="0" />
        <mxCell id="mJ1j02HmuWCkphUKMCgb-9" style="edgeStyle=orthogonalEdgeStyle;rounded=0;orthogonalLoop=1;jettySize=auto;html=1;exitX=1;exitY=0.5;exitDx=0;exitDy=0;entryX=0;entryY=0.5;entryDx=0;entryDy=0;" edge="1" parent="1" source="mJ1j02HmuWCkphUKMCgb-1" target="mJ1j02HmuWCkphUKMCgb-2">
          <mxGeometry relative="1" as="geometry" />
        </mxCell>
        <mxCell id="mJ1j02HmuWCkphUKMCgb-1" value="Start" style="ellipse;whiteSpace=wrap;html=1;align=center;" vertex="1" parent="1">
          <mxGeometry x="40" y="240" width="70" height="50" as="geometry" />
        </mxCell>
        <mxCell id="mJ1j02HmuWCkphUKMCgb-10" style="edgeStyle=orthogonalEdgeStyle;rounded=0;orthogonalLoop=1;jettySize=auto;html=1;exitX=1;exitY=0.5;exitDx=0;exitDy=0;entryX=0;entryY=0.5;entryDx=0;entryDy=0;" edge="1" parent="1" source="mJ1j02HmuWCkphUKMCgb-2" target="mJ1j02HmuWCkphUKMCgb-7">
          <mxGeometry relative="1" as="geometry" />
        </mxCell>
        <mxCell id="mJ1j02HmuWCkphUKMCgb-2" value="Initial Data Collection&lt;div&gt;(Week 1-4)&lt;/div&gt;" style="whiteSpace=wrap;html=1;align=center;" vertex="1" parent="1">
          <mxGeometry x="150" y="230" width="100" height="70" as="geometry" />
        </mxCell>
        <mxCell id="mJ1j02HmuWCkphUKMCgb-16" style="edgeStyle=orthogonalEdgeStyle;rounded=0;orthogonalLoop=1;jettySize=auto;html=1;exitX=1;exitY=0.5;exitDx=0;exitDy=0;entryX=0;entryY=0.5;entryDx=0;entryDy=0;" edge="1" parent="1" source="mJ1j02HmuWCkphUKMCgb-3" target="mJ1j02HmuWCkphUKMCgb-8">
          <mxGeometry relative="1" as="geometry" />
        </mxCell>
        <mxCell id="mJ1j02HmuWCkphUKMCgb-3" value="Final Evaluation and Improvements&lt;div&gt;(Week 21-24)&lt;/div&gt;" style="whiteSpace=wrap;html=1;align=center;" vertex="1" parent="1">
          <mxGeometry x="820" y="230" width="100" height="70" as="geometry" />
        </mxCell>
        <mxCell id="mJ1j02HmuWCkphUKMCgb-15" style="edgeStyle=orthogonalEdgeStyle;rounded=0;orthogonalLoop=1;jettySize=auto;html=1;exitX=1;exitY=0.5;exitDx=0;exitDy=0;entryX=0;entryY=0.5;entryDx=0;entryDy=0;" edge="1" parent="1" source="mJ1j02HmuWCkphUKMCgb-4" target="mJ1j02HmuWCkphUKMCgb-3">
          <mxGeometry relative="1" as="geometry" />
        </mxCell>
        <mxCell id="mJ1j02HmuWCkphUKMCgb-4" value="Deployment and Testing&lt;div&gt;(Week 17-20)&lt;/div&gt;" style="whiteSpace=wrap;html=1;align=center;" vertex="1" parent="1">
          <mxGeometry x="690" y="230" width="100" height="70" as="geometry" />
        </mxCell>
        <mxCell id="mJ1j02HmuWCkphUKMCgb-12" style="edgeStyle=orthogonalEdgeStyle;rounded=0;orthogonalLoop=1;jettySize=auto;html=1;exitX=1;exitY=0.5;exitDx=0;exitDy=0;entryX=0;entryY=0.5;entryDx=0;entryDy=0;" edge="1" parent="1" source="mJ1j02HmuWCkphUKMCgb-5" target="mJ1j02HmuWCkphUKMCgb-6">
          <mxGeometry relative="1" as="geometry" />
        </mxCell>
        <mxCell id="mJ1j02HmuWCkphUKMCgb-5" value="Cloud Integration&lt;div&gt;(Week 9-12)&lt;/div&gt;" style="whiteSpace=wrap;html=1;align=center;" vertex="1" parent="1">
          <mxGeometry x="425" y="230" width="100" height="70" as="geometry" />
        </mxCell>
        <mxCell id="mJ1j02HmuWCkphUKMCgb-13" style="edgeStyle=orthogonalEdgeStyle;rounded=0;orthogonalLoop=1;jettySize=auto;html=1;exitX=1;exitY=0.5;exitDx=0;exitDy=0;entryX=0;entryY=0.5;entryDx=0;entryDy=0;" edge="1" parent="1" source="mJ1j02HmuWCkphUKMCgb-6" target="mJ1j02HmuWCkphUKMCgb-4">
          <mxGeometry relative="1" as="geometry" />
        </mxCell>
        <mxCell id="mJ1j02HmuWCkphUKMCgb-6" value="Dev-Ops Pipeline Setup&lt;div&gt;(Week 13-16)&lt;/div&gt;" style="whiteSpace=wrap;html=1;align=center;" vertex="1" parent="1">
          <mxGeometry x="560" y="230" width="100" height="70" as="geometry" />
        </mxCell>
        <mxCell id="mJ1j02HmuWCkphUKMCgb-11" style="edgeStyle=orthogonalEdgeStyle;rounded=0;orthogonalLoop=1;jettySize=auto;html=1;exitX=1;exitY=0.5;exitDx=0;exitDy=0;entryX=0;entryY=0.5;entryDx=0;entryDy=0;" edge="1" parent="1" source="mJ1j02HmuWCkphUKMCgb-7" target="mJ1j02HmuWCkphUKMCgb-5">
          <mxGeometry relative="1" as="geometry" />
        </mxCell>
        <mxCell id="mJ1j02HmuWCkphUKMCgb-7" value="Model Developement&lt;div&gt;(Week 5-8)&lt;/div&gt;" style="whiteSpace=wrap;html=1;align=center;" vertex="1" parent="1">
          <mxGeometry x="290" y="230" width="100" height="70" as="geometry" />
        </mxCell>
        <mxCell id="mJ1j02HmuWCkphUKMCgb-8" value="End" style="ellipse;whiteSpace=wrap;html=1;align=center;" vertex="1" parent="1">
          <mxGeometry x="970" y="245" width="70" height="40" as="geometry" />
        </mxCell>
      </root>
    </mxGraphModel>
  </diagram>
</mxfile>
